<svg width="33" height="32" viewBox="0 0 33 32" fill="none" xmlns="http://www.w3.org/2000/svg">
<g clip-path="url(#clip0_405_4126)">
<path d="M15.6041 18.5522C13.4185 16.2424 15.5779 12.5972 15.5779 12.5972L18.1339 8.14056C18.8795 6.82716 19.1413 5.28846 18.8727 3.79796C18.6041 2.30748 17.8224 0.961757 16.6667 0L14.4529 3.85112L11.0316 9.64717C8.84998 13.376 9.60871 17.329 15.431 18.8336C15.4671 18.8472 15.5067 18.8476 15.5431 18.835C15.5795 18.8224 15.6104 18.7974 15.6308 18.7645C15.6511 18.7313 15.6596 18.6922 15.6547 18.6534C15.6499 18.6148 15.632 18.579 15.6041 18.5522Z" fill="url(#paint0_linear_405_4126)"/>
<path d="M16.9239 19.0169C16.8138 19.0337 16.7047 18.9825 16.6583 18.8919C15.7779 17.1758 15.887 15.2744 16.8109 13.7738C17.7348 12.2732 18.2427 11.3196 18.7303 10.543C19.3867 9.49756 20.3024 8.07081 20.3024 8.07081C20.3024 8.07081 21.0713 8.70609 21.5738 9.28083C22.0763 9.85558 22.7461 10.6489 22.9953 11.9297C23.2446 13.2104 23.0093 14.3822 22.3092 15.4919L22.2376 15.6018C21.6081 16.5365 20.7789 17.3278 19.8066 17.9215C18.8876 18.4827 17.9817 18.8555 16.9239 19.0169Z" fill="url(#paint1_linear_405_4126)"/>
<path d="M22.0569 21.9288C21.8728 21.79 21.7068 21.6254 21.5635 21.4395L21.6111 21.8167L22.0569 21.9288Z" fill="#149590"/>
<path d="M22.1438 23.0234H21.9323L22.6201 20.9846H22.8316C22.8989 20.9892 22.9663 20.9789 23.0297 20.9543C23.093 20.9299 23.1511 20.8919 23.2002 20.8425C23.2493 20.7931 23.2884 20.7335 23.3152 20.6673C23.3419 20.6011 23.3557 20.5297 23.3557 20.4576C23.3557 20.3856 23.3419 20.3143 23.3152 20.2481C23.2884 20.1818 23.2493 20.1223 23.2002 20.0728C23.1511 20.0235 23.093 19.9854 23.0297 19.9609C22.9663 19.9365 22.8989 19.9262 22.8316 19.9307H10.1064C9.98104 19.939 9.8634 19.9982 9.77741 20.096C9.69142 20.194 9.64355 20.3233 9.64355 20.4576C9.64355 20.5921 9.69142 20.7213 9.77741 20.8193C9.8634 20.9172 9.98104 20.9763 10.1064 20.9846H10.3179L11.0076 23.0234H10.7961C10.6652 23.0234 10.5397 23.079 10.4471 23.1781C10.3546 23.277 10.3026 23.4114 10.3026 23.5515C10.3026 23.6914 10.3546 23.8258 10.4471 23.9248C10.5397 24.0238 10.6652 24.0794 10.7961 24.0794H22.1438C22.2747 24.0794 22.4002 24.0238 22.4928 23.9248C22.5853 23.8258 22.6373 23.6914 22.6373 23.5515C22.6373 23.4114 22.5853 23.277 22.4928 23.1781C22.4002 23.079 22.2747 23.0234 22.1438 23.0234Z" fill="#149590"/>
<path d="M19.764 26.4232C19.8949 26.4232 20.0204 26.3676 20.1129 26.2685C20.2055 26.1694 20.2575 26.0352 20.2575 25.8951C20.2575 25.7552 20.2055 25.6208 20.1129 25.5218C20.0204 25.4228 19.8949 25.3672 19.764 25.3672H13.1756C13.0447 25.3672 12.9192 25.4228 12.8267 25.5218C12.7341 25.6208 12.6821 25.7552 12.6821 25.8951C12.6821 26.0352 12.7341 26.1694 12.8267 26.2685C12.9192 26.3676 13.0447 26.4232 13.1756 26.4232H13.8062L15.1837 30.945H14.5531C14.4858 30.9406 14.4184 30.9509 14.3551 30.9753C14.2917 30.9998 14.2336 31.0379 14.1845 31.0873C14.1354 31.1366 14.0963 31.1963 14.0695 31.2625C14.0428 31.3286 14.029 31.3999 14.029 31.472C14.029 31.5442 14.0428 31.6155 14.0695 31.6817C14.0963 31.7478 14.1354 31.8075 14.1845 31.8568C14.2336 31.9063 14.2917 31.9443 14.3551 31.9687C14.4184 31.9933 14.4858 32.0035 14.5531 31.999H18.3789C18.4461 32.0035 18.5135 31.9933 18.5769 31.9687C18.6403 31.9443 18.6983 31.9063 18.7474 31.8568C18.7965 31.8075 18.8357 31.7478 18.8624 31.6817C18.8892 31.6155 18.903 31.5442 18.903 31.472C18.903 31.3999 18.8892 31.3286 18.8624 31.2625C18.8357 31.1963 18.7965 31.1366 18.7474 31.0873C18.6983 31.0379 18.6403 30.9998 18.5769 30.9753C18.5135 30.9509 18.4461 30.9406 18.3789 30.945H17.752L19.141 26.4232H19.764Z" fill="#149590"/>
</g>
<defs>
<linearGradient id="paint0_linear_405_4126" x1="17.2664" y1="6.77593" x2="17.6714" y2="11.7242" gradientUnits="userSpaceOnUse">
<stop stop-color="#FEAE1F"/>
<stop offset="1" stop-color="#FD531F"/>
</linearGradient>
<linearGradient id="paint1_linear_405_4126" x1="23.0894" y1="13.5775" x2="21.4179" y2="16.7283" gradientUnits="userSpaceOnUse">
<stop stop-color="#FEAE1F"/>
<stop offset="1" stop-color="#FD531F"/>
</linearGradient>
<clipPath id="clip0_405_4126">
<rect width="32" height="32" fill="white" transform="translate(0.5)"/>
</clipPath>
</defs>
</svg>
